<svg width="640" height="360" viewBox="0 0 640 360" fill="none" xmlns="http://www.w3.org/2000/svg">
  <rect width="640" height="360" rx="24" fill="#F5F5F5"/>
  <rect x="40" y="60" width="560" height="180" rx="16" fill="white" stroke="#E5E5E5" stroke-width="2"/>
  <rect x="80" y="210" width="120" height="10" rx="5" fill="#D4D4D4"/>
  <rect x="440" y="210" width="120" height="10" rx="5" fill="#D4D4D4"/>
  <rect x="110" y="120" width="420" height="90" rx="10" fill="#111827"/>
  <rect x="130" y="135" width="380" height="60" rx="8" fill="#111827" stroke="#374151" stroke-width="2"/>
  <path d="M130 187L510 135" stroke="#4B5563" stroke-width="2" stroke-linecap="round"/>
  <path d="M130 195L510 143" stroke="#4B5563" stroke-width="2" stroke-linecap="round"/>
  <circle cx="170" cy="220" r="16" fill="#111827"/>
  <circle cx="170" cy="220" r="9" fill="#E5E7EB"/>
  <circle cx="470" cy="220" r="16" fill="#111827"/>
  <circle cx="470" cy="220" r="9" fill="#E5E7EB"/>
  <rect x="220" y="222" width="200" height="6" rx="3" fill="#9CA3AF"/>
  <rect x="52" y="280" width="160" height="44" rx="10" fill="#E10600"/>
  <text x="72" y="306" fill="white" font-family="system-ui, -apple-system, BlinkMacSystemFont, 'Inter', sans-serif" font-size="14" font-weight="600">Remplacement pare-brise</text>
  <rect x="236" y="280" width="160" height="44" rx="10" fill="#111827"/>
  <text x="256" y="306" fill="white" font-family="system-ui, -apple-system, BlinkMacSystemFont, 'Inter', sans-serif" font-size="14" font-weight="600">Vitres teintées</text>
  <rect x="420" y="280" width="168" height="44" rx="10" fill="#FBBF24"/>
  <text x="440" y="306" fill="#111827" font-family="system-ui, -apple-system, BlinkMacSystemFont, 'Inter', sans-serif" font-size="14" font-weight="600">Rénovation de phares</text>
  <circle cx="552" cy="84" r="14" fill="#FBBF24"/>
  <path d="M548 84L551 87L557 81" stroke="#111827" stroke-width="2" stroke-linecap="round" stroke-linejoin="round"/>
</svg>
